<?xml version="1.0" encoding="UTF-8" standalone="no"?>
<!-- Created with Inkscape (http://www.inkscape.org/) -->

<svg
   width="200"
   height="18"
   viewBox="0 0 52.916667 4.7624996"
   version="1.1"
   id="svg5"
   inkscape:version="1.1.1 (3bf5ae0d25, 2021-09-20)"
   sodipodi:docname="arrow_big.svg"
   inkscape:export-filename="/home/ram/_4/lvgl_simulator_sdl_cmake/my_proj/resources/arrow_big.png"
   inkscape:export-xdpi="96"
   inkscape:export-ydpi="96"
   xmlns:inkscape="http://www.inkscape.org/namespaces/inkscape"
   xmlns:sodipodi="http://sodipodi.sourceforge.net/DTD/sodipodi-0.dtd"
   xmlns="http://www.w3.org/2000/svg"
   xmlns:svg="http://www.w3.org/2000/svg">
  <sodipodi:namedview
     id="namedview7"
     pagecolor="#ffffff"
     bordercolor="#666666"
     borderopacity="1.0"
     inkscape:pageshadow="2"
     inkscape:pageopacity="0.0"
     inkscape:pagecheckerboard="0"
     inkscape:document-units="px"
     showgrid="false"
     units="px"
     inkscape:zoom="1"
     inkscape:cx="321"
     inkscape:cy="102"
     inkscape:window-width="1680"
     inkscape:window-height="985"
     inkscape:window-x="0"
     inkscape:window-y="0"
     inkscape:window-maximized="1"
     inkscape:current-layer="layer1" />
  <defs
     id="defs2">
    <filter
       inkscape:label="Monochrome Transparency"
       inkscape:menu="Fill and Transparency"
       inkscape:menu-tooltip="Convert to a colorizable transparent positive or negative"
       style="color-interpolation-filters:sRGB"
       id="filter12086"
       x="0"
       y="0"
       width="1"
       height="1">
      <feColorMatrix
         type="luminanceToAlpha"
         result="fbSourceGraphic"
         id="feColorMatrix12078" />
      <feFlood
         flood-color="rgb(134,39,24)"
         result="result1"
         flood-opacity="1"
         id="feFlood12080" />
      <feComposite
         operator="out"
         in2="fbSourceGraphic"
         result="result2"
         id="feComposite12082" />
      <feComposite
         operator="in"
         in2="SourceGraphic"
         id="feComposite12084" />
    </filter>
  </defs>
  <g
     inkscape:label="Слой 1"
     inkscape:groupmode="layer"
     id="layer1"
     transform="translate(-8.6365128,-75.340485)">
    <rect
       style="fill:#000000;fill-opacity:0.02;stroke-width:0.320602"
       id="rect1169"
       width="52.916664"
       height="4.7624998"
       x="8.6365128"
       y="75.340485"
       inkscape:export-filename="/home/ram/_4/lvgl_simulator_sdl_cmake/lv_user/resources/arrow_big.png"
       inkscape:export-xdpi="96"
       inkscape:export-ydpi="96" />
    <path
       id="path12446-3"
       style="fill:#000000;stroke-width:0.37307"
       d="M 26.427734 0.08984375 L 20.927734 0.091796875 C 24.277237 1.7989797 26.386232 5.2405259 26.386719 9 C 26.386231 12.759477 24.277239 16.201021 20.927734 17.908203 L 26.427734 17.910156 L 26.427734 17.890625 C 30.16136 13.468842 36.890938 22.158705 47.126953 13.75 C 49.491906 11.66189 51.524852 13.308619 52.673828 13.998047 C 54.229406 16.468203 56.858891 17.838083 59.560547 17.855469 C 59.81946 17.879919 60.078515 17.898687 60.341797 17.898438 C 60.54667 17.898438 60.751941 17.891537 60.953125 17.873047 C 60.966505 17.872047 60.978588 17.873965 60.992188 17.873047 C 61.006507 17.873047 61.023499 17.874247 61.037109 17.873047 C 61.454071 17.839937 61.863149 17.776217 62.261719 17.685547 C 62.469105 17.637777 62.67156 17.582788 62.873047 17.521484 C 63.072243 17.460184 63.269984 17.395072 63.462891 17.320312 C 63.465591 17.320312 63.46705 17.321235 63.46875 17.320312 C 63.47255 17.320312 63.476649 17.321612 63.480469 17.320312 C 63.674049 17.243703 63.862119 17.16116 64.048828 17.072266 C 64.238417 16.981596 64.42758 16.88612 64.609375 16.783203 L 64.611328 16.783203 C 64.613228 16.783203 64.617341 16.784403 64.619141 16.783203 C 64.78872 16.686973 64.952828 16.581872 65.115234 16.474609 C 65.125814 16.474609 65.135524 16.455078 65.146484 16.455078 C 65.152884 16.455078 65.160726 16.4375 65.166016 16.4375 C 65.328698 16.328461 65.48574 16.213259 65.640625 16.09375 C 65.647025 16.07482 65.652976 16.074219 65.660156 16.074219 C 65.674026 16.055699 65.689515 16.055629 65.703125 16.037109 C 65.841569 15.928675 65.975668 15.818791 66.107422 15.701172 C 66.119892 15.688702 66.132061 15.688442 66.144531 15.669922 C 66.152131 15.664222 66.161982 15.646484 66.169922 15.646484 C 66.297254 15.531247 66.42244 15.412237 66.542969 15.289062 L 66.544922 15.289062 C 66.608232 15.225343 66.6689 15.161139 66.730469 15.09375 C 66.797629 15.02028 66.86468 14.947806 66.929688 14.873047 C 66.962157 14.836307 66.997167 14.806567 67.029297 14.763672 C 67.071327 14.713522 67.109007 14.590167 67.144531 14.435547 C 70.110285 12.554102 84.560547 14.103516 84.560547 14.103516 C 92.393637 15.332656 98.637477 15.883932 108.31445 14.080078 C 112.8445 13.538408 121.64451 10.877993 126.6875 14.769531 C 128.23734 15.965404 129.64214 16.941406 129.80859 16.941406 C 129.97499 16.941406 130.90302 16.373728 131.87305 15.675781 C 136.13766 12.606952 145.16408 10.953232 162.01953 10.154297 C 164.48612 10.038492 167.07031 9.8320313 167.07031 9.8320312 L 167.07031 9.0664062 L 167.07031 9.0117188 L 167.07031 9 L 167.07031 8.9882812 L 167.07031 8.9335938 L 167.07031 8.1679688 C 167.07031 8.1679688 164.48612 7.9615079 162.01953 7.8457031 C 145.16408 7.0467677 136.13766 5.3930474 131.87305 2.3242188 C 130.90302 1.6262723 129.97499 1.0585937 129.80859 1.0585938 C 129.64214 1.0585938 128.23734 2.0345959 126.6875 3.2304688 C 121.64451 7.1220061 112.8445 4.4615924 108.31445 3.9199219 C 98.637475 2.1160705 92.393637 2.6673507 84.560547 3.8964844 C 84.560547 3.8964844 70.110285 5.4458982 67.144531 3.5644531 C 67.109001 3.4098326 67.071321 3.2864825 67.029297 3.2363281 C 66.997167 3.1934301 66.962157 3.1636901 66.929688 3.1269531 C 66.864574 3.0521961 66.797631 2.979724 66.730469 2.90625 C 66.6689 2.838861 66.608229 2.7746603 66.544922 2.7109375 L 66.542969 2.7109375 C 66.422449 2.5877627 66.297254 2.4687534 66.169922 2.3535156 C 66.162022 2.3535156 66.152091 2.3357461 66.144531 2.3300781 C 66.132061 2.3115581 66.119892 2.3113001 66.107422 2.2988281 C 65.975668 2.1812092 65.841569 2.0713253 65.703125 1.9628906 C 65.689515 1.9443706 65.674026 1.9443002 65.660156 1.9257812 C 65.652956 1.9257812 65.647045 1.9250565 65.640625 1.90625 C 65.485787 1.7867391 65.328698 1.6715394 65.166016 1.5625 C 65.160716 1.5625 65.152904 1.5449219 65.146484 1.5449219 C 65.135524 1.5449219 65.125814 1.5253906 65.115234 1.5253906 C 64.952828 1.4181276 64.78872 1.3130237 64.619141 1.2167969 C 64.617341 1.2155669 64.613228 1.2167969 64.611328 1.2167969 L 64.609375 1.2167969 C 64.427606 1.1138795 64.238417 1.0184052 64.048828 0.92773438 C 63.862119 0.83883988 63.674049 0.75629853 63.480469 0.6796875 C 63.476669 0.6784025 63.47257 0.6796875 63.46875 0.6796875 C 63.46705 0.6787653 63.465391 0.6796875 63.462891 0.6796875 C 63.270026 0.6049284 63.072243 0.53981956 62.873047 0.47851562 C 62.67156 0.41721176 62.469105 0.36222636 62.261719 0.31445312 C 61.863149 0.22378223 61.454071 0.16006179 61.037109 0.12695312 C 61.023499 0.12573213 61.006507 0.12695312 60.992188 0.12695312 C 60.978578 0.12603474 60.966505 0.12800012 60.953125 0.12695312 C 60.751937 0.10843348 60.54667 0.1015625 60.341797 0.1015625 C 60.078515 0.10131305 59.81946 0.12007771 59.560547 0.14453125 C 56.858891 0.16191708 54.229406 1.5317978 52.673828 4.0019531 C 51.524852 4.6913806 49.491902 6.3381139 47.126953 4.25 C 36.890934 -4.158702 30.161359 4.5311561 26.427734 0.109375 L 26.427734 0.08984375 z M 59.849609 4.9179688 C 62.268507 4.9179688 64.082031 6.7028376 64.082031 8.8496094 C 64.082031 8.9014494 64.070009 8.9487274 64.068359 9 C 64.069859 9.051288 64.082031 9.098536 64.082031 9.1503906 C 64.082031 11.297162 62.268507 13.082031 59.849609 13.082031 C 57.76331 13.082031 55.917969 11.266926 55.917969 9.1503906 C 55.917969 9.0985736 55.929961 9.0512506 55.931641 9 C 55.929941 8.948739 55.917969 8.901438 55.917969 8.8496094 C 55.917969 6.7330739 57.76331 4.9179687 59.849609 4.9179688 z M 129.8125 5.2011719 C 131.49944 6.9143146 133.43264 8.2186796 135.69727 8.9863281 C 135.68577 8.9902181 135.67556 8.996078 135.66406 9 C 135.67536 9.00378 135.68597 9.0098899 135.69727 9.0136719 C 133.43264 9.7813204 131.49944 11.085685 129.8125 12.798828 C 128.2198 11.311123 126.3321 10.004997 123.92188 9.0136719 C 123.93247 9.0095119 123.94097 9.004162 123.95117 9 C 123.94087 8.99575 123.93217 8.9905701 123.92188 8.9863281 C 126.33209 7.9950034 128.2198 6.6888771 129.8125 5.2011719 z M 97.035156 6.2050781 A 13.488933 2.7956023 0 0 1 110.52344 9 A 13.488933 2.7956023 0 0 1 97.035156 11.794922 A 13.488933 2.7956023 0 0 1 83.546875 9 A 13.488933 2.7956023 0 0 1 97.035156 6.2050781 z "
       transform="matrix(0.26458332,0,0,0.26458332,8.6365128,75.340485)"
       inkscape:export-filename="/home/ram/_4/lvgl_simulator_sdl_cmake/lv_user/resources/arrow_big.png"
       inkscape:export-xdpi="96"
       inkscape:export-ydpi="96" />
    <path
       style="fill:#000000;fill-opacity:1;stroke-width:0.00958333"
       d="m 24.507802,77.618012 c 0.06147,0 0.107565,0.04533 0.107565,0.09988 v 0 0 c 0,0.06147 -0.0461,0.107565 -0.107565,0.107565 -0.05301,0 -0.09988,-0.0461 -0.09988,-0.107565 v 0 0 c 0,-0.05378 0.04687,-0.09988 0.09988,-0.09988 z"
       id="path840"
       inkscape:export-filename="/home/ram/_4/lvgl_simulator_sdl_cmake/lv_user/resources/arrow_big.png"
       inkscape:export-xdpi="96"
       inkscape:export-ydpi="96" />
  </g>
</svg>
