<?xml version="1.0" encoding="UTF-8" standalone="no"?>
<!-- Created with Inkscape (http://www.inkscape.org/) -->

<svg
   width="200"
   height="18"
   viewBox="0 0 52.916667 4.7624996"
   version="1.1"
   id="svg5"
   inkscape:version="1.1.1 (3bf5ae0d25, 2021-09-20)"
   sodipodi:docname="arrow_midle.svg"
   inkscape:export-filename="/home/ram/_4/lvgl_simulator_sdl_cmake/lv_user/resources/arrow_midle.png"
   inkscape:export-xdpi="96"
   inkscape:export-ydpi="96"
   xmlns:inkscape="http://www.inkscape.org/namespaces/inkscape"
   xmlns:sodipodi="http://sodipodi.sourceforge.net/DTD/sodipodi-0.dtd"
   xmlns="http://www.w3.org/2000/svg"
   xmlns:svg="http://www.w3.org/2000/svg">
  <sodipodi:namedview
     id="namedview7"
     pagecolor="#ffffff"
     bordercolor="#666666"
     borderopacity="1.0"
     inkscape:pageshadow="2"
     inkscape:pageopacity="0.0"
     inkscape:pagecheckerboard="0"
     inkscape:document-units="px"
     showgrid="false"
     units="px"
     inkscape:zoom="1.4142137"
     inkscape:cx="83.08504"
     inkscape:cy="85.559914"
     inkscape:window-width="1680"
     inkscape:window-height="985"
     inkscape:window-x="0"
     inkscape:window-y="0"
     inkscape:window-maximized="1"
     inkscape:current-layer="layer1" />
  <defs
     id="defs2">
    <filter
       inkscape:label="Monochrome Transparency"
       inkscape:menu="Fill and Transparency"
       inkscape:menu-tooltip="Convert to a colorizable transparent positive or negative"
       style="color-interpolation-filters:sRGB"
       id="filter12086"
       x="0"
       y="0"
       width="1"
       height="1">
      <feColorMatrix
         type="luminanceToAlpha"
         result="fbSourceGraphic"
         id="feColorMatrix12078" />
      <feFlood
         flood-color="rgb(134,39,24)"
         result="result1"
         flood-opacity="1"
         id="feFlood12080" />
      <feComposite
         operator="out"
         in2="fbSourceGraphic"
         result="result2"
         id="feComposite12082" />
      <feComposite
         operator="in"
         in2="SourceGraphic"
         id="feComposite12084" />
    </filter>
  </defs>
  <g
     inkscape:label="Слой 1"
     inkscape:groupmode="layer"
     id="layer1"
     transform="translate(-8.6365128,-75.340485)">
    <rect
       style="fill:#000000;fill-opacity:0.02;stroke-width:0.320602"
       id="rect1169"
       width="52.916664"
       height="4.7624998"
       x="8.6365128"
       y="75.340485"
       inkscape:export-filename="/home/ram/_4/lvgl_simulator_sdl_cmake/lv_user/resources/arrow_midle.png"
       inkscape:export-xdpi="96"
       inkscape:export-ydpi="96" />
    <path
       style="fill:#000000;fill-opacity:1;stroke-width:0.00958333"
       d="m 24.507802,77.618012 c 0.06147,0 0.107565,0.04533 0.107565,0.09988 v 0 0 c 0,0.06147 -0.0461,0.107565 -0.107565,0.107565 -0.05301,0 -0.09988,-0.0461 -0.09988,-0.107565 v 0 0 c 0,-0.05378 0.04687,-0.09988 0.09988,-0.09988 z"
       id="path840"
       inkscape:export-filename="/home/ram/_4/lvgl_simulator_sdl_cmake/lv_user/resources/arrow_midle.png"
       inkscape:export-xdpi="96"
       inkscape:export-ydpi="96" />
    <path
       id="path11397"
       style="fill:#000000;fill-opacity:0.987817;stroke:none;stroke-width:0.668942"
       d="M 21.417969 0.52929688 L 21.417969 0.53515625 L 18.15625 0.53515625 C 20.212435 2.4283388 21.382484 6.205005 21.382812 9 C 21.382485 11.794995 20.212434 15.571659 18.15625 17.464844 L 21.417969 17.464844 L 21.417969 17.470703 C 26.710714 11.189105 28.169866 17.025828 37.201172 17.003906 C 43.932775 16.702856 45.776905 13.341065 49.548828 12.417969 C 52.191489 11.909248 54.090991 13.223676 54.541016 13.763672 C 54.662611 13.910057 54.793838 14.050278 54.925781 14.185547 C 54.951898 14.213326 54.977828 14.236081 55.003906 14.263672 C 55.128778 14.387905 55.257548 14.504432 55.390625 14.619141 C 55.439116 14.660375 55.487484 14.705174 55.537109 14.744141 C 55.667038 14.850459 55.800832 14.949186 55.9375 15.044922 C 55.971251 15.069905 56.003094 15.098795 56.037109 15.121094 C 56.05544 15.137875 56.07208 15.143526 56.089844 15.160156 C 56.241565 15.261485 56.399665 15.355663 56.558594 15.445312 C 56.63014 15.484884 56.702484 15.52158 56.775391 15.560547 C 56.886017 15.618449 56.997678 15.674455 57.111328 15.724609 C 57.188884 15.759646 57.266862 15.790959 57.345703 15.824219 C 57.470915 15.875394 57.598249 15.924189 57.726562 15.96875 C 57.804496 15.9943 57.881832 16.026529 57.960938 16.048828 L 57.962891 16.048828 C 58.14551 16.104425 58.331991 16.154392 58.519531 16.193359 C 58.596936 16.210329 58.675632 16.221651 58.753906 16.238281 C 58.890238 16.26281 59.025657 16.283773 59.164062 16.300781 C 59.242903 16.311742 59.322671 16.332031 59.402344 16.332031 C 59.615513 16.348661 59.828128 16.365404 60.044922 16.365234 L 60.044922 16.363281 C 60.213595 16.363281 60.381143 16.356474 60.546875 16.339844 C 60.558214 16.338952 60.570693 16.340566 60.582031 16.339844 C 60.594126 16.339844 60.605849 16.340845 60.617188 16.339844 C 60.960439 16.312556 61.296861 16.260684 61.625 16.185547 C 61.795691 16.145975 61.9649 16.098982 62.130859 16.048828 C 62.29488 15.99822 62.456759 15.944646 62.615234 15.882812 C 62.617124 15.882812 62.619692 15.883538 62.621094 15.882812 C 62.624117 15.882812 62.62796 15.883871 62.630859 15.882812 C 62.790269 15.819922 62.943981 15.751208 63.097656 15.677734 C 63.253777 15.603164 63.409491 15.524644 63.558594 15.439453 L 63.560547 15.439453 C 63.562437 15.439453 63.565004 15.440462 63.566406 15.439453 C 63.70606 15.359856 63.842806 15.272148 63.976562 15.183594 C 63.9845 15.183594 63.992882 15.166016 64.001953 15.166016 C 64.007244 15.166016 64.01109 15.150391 64.015625 15.150391 C 64.149609 15.06074 64.280644 14.967673 64.408203 14.869141 C 64.413872 14.852137 64.419734 14.851562 64.425781 14.851562 C 64.437876 14.840603 64.447646 14.842802 64.458984 14.826172 C 64.572975 14.736559 64.684459 14.644311 64.792969 14.546875 C 64.803173 14.536292 64.812061 14.536539 64.822266 14.519531 C 64.828313 14.513862 64.834616 14.496094 64.841797 14.496094 C 64.946603 14.400887 65.051178 14.305021 65.150391 14.203125 L 65.152344 14.203125 C 65.204501 14.150249 65.254042 14.096726 65.304688 14.041016 C 65.360057 13.980354 65.415345 13.921132 65.46875 13.859375 C 65.495547 13.828761 65.524703 13.800838 65.550781 13.767578 C 69.160616 10.198706 87.515437 11.381167 92.542969 12.421875 C 101.28365 14.229347 108.94642 14.445758 115.76758 13.419922 C 122.71505 11.730397 154.06463 7.7934074 162.22656 16.361328 L 163.50977 16.361328 C 169.80841 10.189099 187.0758 10.153288 194.08398 9.7402344 L 194.08398 9 L 194.08398 8.2597656 C 187.0758 7.8467124 169.80842 7.8109006 163.50977 1.6386719 L 162.22656 1.6386719 C 154.06463 10.206593 122.71505 6.2696026 115.76758 4.5800781 C 108.94642 3.5542418 101.28365 3.7706516 92.542969 5.578125 C 87.515438 6.6188351 69.160616 7.8012925 65.550781 4.2324219 C 65.524703 4.199162 65.495547 4.1712392 65.46875 4.140625 C 65.415345 4.0788675 65.36005 4.0196458 65.304688 3.9589844 C 65.254042 3.9032741 65.204501 3.8497506 65.152344 3.796875 L 65.150391 3.796875 C 65.051191 3.6949789 64.946603 3.5991126 64.841797 3.5039062 C 64.834597 3.5039062 64.828316 3.4861375 64.822266 3.4804688 C 64.812066 3.4634608 64.803179 3.463708 64.792969 3.453125 C 64.684459 3.355689 64.572975 3.2634407 64.458984 3.1738281 C 64.447644 3.1571981 64.437871 3.1593985 64.425781 3.1484375 C 64.419781 3.1484375 64.413873 3.1476778 64.408203 3.1308594 C 64.280644 3.0323274 64.149609 2.9392598 64.015625 2.8496094 C 64.011125 2.8496094 64.007223 2.8339844 64.001953 2.8339844 C 63.992853 2.8339844 63.984502 2.8164063 63.976562 2.8164062 C 63.842813 2.7278525 63.70606 2.6401437 63.566406 2.5605469 C 63.565006 2.5595369 63.562147 2.5605469 63.560547 2.5605469 L 63.558594 2.5605469 C 63.409505 2.4753558 63.253777 2.3968357 63.097656 2.3222656 C 62.943981 2.2487916 62.790265 2.1800788 62.630859 2.1171875 C 62.627959 2.1161275 62.624194 2.1171875 62.621094 2.1171875 C 62.619694 2.1164618 62.616834 2.1171875 62.615234 2.1171875 C 62.456756 2.0553544 62.29488 2.0017798 62.130859 1.9511719 C 61.9649 1.9010175 61.795691 1.8540248 61.625 1.8144531 C 61.296861 1.7393161 60.96044 1.6874444 60.617188 1.6601562 C 60.605848 1.6591569 60.594131 1.6601563 60.582031 1.6601562 C 60.570691 1.6594352 60.558215 1.6610482 60.546875 1.6601562 C 60.381143 1.6435265 60.213595 1.6367187 60.044922 1.6367188 L 60.044922 1.6347656 C 59.828128 1.6345955 59.615513 1.6513388 59.402344 1.6679688 C 59.322674 1.6679688 59.242941 1.6882578 59.164062 1.6992188 C 59.025664 1.7162265 58.890238 1.7371898 58.753906 1.7617188 C 58.675636 1.7783485 58.596936 1.7897086 58.519531 1.8066406 C 58.331991 1.8456076 58.14551 1.8955746 57.962891 1.9511719 L 57.960938 1.9511719 C 57.881828 1.9734709 57.804496 2.0057 57.726562 2.03125 C 57.598256 2.075811 57.470915 2.1246073 57.345703 2.1757812 C 57.266863 2.2090412 57.188884 2.2403546 57.111328 2.2753906 C 56.997678 2.3255446 56.886017 2.3815508 56.775391 2.4394531 C 56.702481 2.4784201 56.63014 2.5151161 56.558594 2.5546875 C 56.399665 2.6443375 56.241565 2.7385146 56.089844 2.8398438 C 56.072084 2.8564735 56.055439 2.8621645 56.037109 2.8789062 C 56.003089 2.9012052 55.97125 2.9300951 55.9375 2.9550781 C 55.800832 3.0508131 55.667034 3.1495413 55.537109 3.2558594 C 55.487489 3.2948264 55.439119 3.3396244 55.390625 3.3808594 C 55.257548 3.495568 55.128778 3.612095 55.003906 3.7363281 C 54.977826 3.7639191 54.951901 3.7866731 54.925781 3.8144531 C 54.793838 3.9497224 54.662611 4.0899432 54.541016 4.2363281 C 54.090991 4.7763244 52.191489 6.0907523 49.548828 5.5820312 C 45.776904 4.6589346 43.932775 1.2971462 37.201172 0.99609375 C 28.169863 0.974308 26.710715 6.8108956 21.417969 0.52929688 z M 59.849609 4.9179688 C 62.268507 4.9179688 64.082031 6.7028376 64.082031 8.8496094 C 64.082031 8.9006754 64.075819 8.9494854 64.074219 9 C 64.076109 9.0504945 64.082031 9.0993292 64.082031 9.1503906 C 64.082031 11.297162 62.268507 13.082031 59.849609 13.082031 C 57.76331 13.082035 55.917969 11.266926 55.917969 9.1503906 C 55.917969 9.0993292 55.924179 9.0505323 55.925781 9 C 55.924181 8.949485 55.917969 8.900675 55.917969 8.8496094 C 55.917969 6.7330739 57.76331 4.9179687 59.849609 4.9179688 z M 162.78906 5.2167969 C 164.44665 6.9254555 166.34485 8.2315294 168.56836 9 C 166.34485 9.7684725 164.44665 11.074543 162.78906 12.783203 C 161.22356 11.298896 159.36871 9.9905159 157.00195 9 C 159.36871 8.0094829 161.22356 6.7011009 162.78906 5.2167969 z M 106.56641 6.5507812 A 13.514564 2.4496647 0 0 1 120.08008 9 A 13.514564 2.4496647 0 0 1 106.56641 11.449219 A 13.514564 2.4496647 0 0 1 93.050781 9 A 13.514564 2.4496647 0 0 1 106.56641 6.5507812 z "
       transform="matrix(0.26458332,0,0,0.26458332,8.6365128,75.340485)"
       inkscape:export-filename="/home/ram/_4/lvgl_simulator_sdl_cmake/lv_user/resources/arrow_midle.png"
       inkscape:export-xdpi="96"
       inkscape:export-ydpi="96" />
  </g>
</svg>
